<svg xmlns="http://www.w3.org/2000/svg" xmlns:xlink="http://www.w3.org/1999/xlink" preserveAspectRatio="xMidYMid meet" version="1.0" viewBox="0.0 0.0 532.0 532.0" zoomAndPan="magnify" style="fill: rgb(0, 0, 0);" original_string_length="4649"><g id="__id310_s2604yql28"><path d="M266,0C119.092,0,0,119.092,0,266c0,146.908,119.092,266,266,266c146.907,0,266-119.092,266-266 C532,119.092,412.907,0,266,0z M266,277.037c-6.096,0-11.038-4.941-11.038-11.037c0-6.095,4.942-11.037,11.038-11.037 c6.095,0,11.037,4.941,11.037,11.037C277.037,272.096,272.095,277.037,266,277.037z" style="fill: rgb(83, 64, 60);"/></g><g id="__id311_s2604yql28"><path d="M266,5.833C122.313,5.833,5.834,122.314,5.834,266 c0,143.686,116.479,260.167,260.166,260.167c143.686,0,260.167-116.481,260.167-260.167C526.167,122.314,409.686,5.833,266,5.833z M266,277.037c-6.096,0-11.038-4.941-11.038-11.037c0-6.095,4.942-11.037,11.038-11.037c6.095,0,11.037,4.941,11.037,11.037 C277.037,272.096,272.095,277.037,266,277.037z" opacity=".05" style="fill: rgb(255, 230, 197);"/></g><g id="__id312_s2604yql28"><path d="M266,131.629c-74.212,0-134.371,60.159-134.371,134.371c0,74.211,60.159,134.372,134.371,134.372 c74.211,0,134.371-60.161,134.371-134.372C400.371,191.789,340.211,131.629,266,131.629z M266,277.037 c-6.096,0-11.038-4.941-11.038-11.037c0-6.095,4.942-11.037,11.038-11.037c6.095,0,11.037,4.941,11.037,11.037 C277.037,272.096,272.095,277.037,266,277.037z" style="fill: rgb(83, 64, 60);"/></g><g id="__id313_s2604yql28"><path d="M266,184.296c-45.125,0-81.705,36.58-81.705,81.704c0,45.125,36.58,81.705,81.705,81.705 c45.124,0,81.704-36.58,81.704-81.705C347.704,220.876,311.124,184.296,266,184.296z M266,277.037 c-6.096,0-11.038-4.941-11.038-11.037c0-6.095,4.942-11.037,11.038-11.037c6.095,0,11.037,4.941,11.037,11.037 C277.037,272.096,272.095,277.037,266,277.037z" style="fill: rgb(90, 117, 123);"/></g><g id="__id314_s2604yql28"><path d="M266,337.039c-39.171,0-71.039-31.868-71.039-71.039c0-39.17,31.868-71.038,71.039-71.038 S337.038,226.83,337.038,266C337.038,305.171,305.171,337.039,266,337.039z M266,196.962c-38.068,0-69.039,30.97-69.039,69.038 c0,38.068,30.971,69.039,69.039,69.039c38.067,0,69.038-30.971,69.038-69.039C335.038,227.933,304.067,196.962,266,196.962z" style="fill: rgb(255, 230, 197);"/></g><g id="__id315_s2604yql28" style="fill: rgb(83, 64, 60);"><path d="M266,485.744c-58.696,0-113.878-22.857-155.383-64.361C69.113,379.878,46.255,324.695,46.255,266 c0-58.696,22.857-113.878,64.362-155.382S207.304,46.256,266,46.256c58.695,0,113.878,22.857,155.382,64.361 s64.36,96.687,64.36,155.382c0,58.696-22.856,113.879-64.36,155.383S324.695,485.744,266,485.744z M266,51.113 c-57.399,0-111.362,22.352-151.949,62.938C73.464,154.638,51.112,208.601,51.112,266c0,57.398,22.352,111.361,62.939,151.948 c40.587,40.588,94.551,62.94,151.949,62.94s111.361-22.353,151.948-62.939c40.586-40.587,62.938-94.551,62.938-151.949 c0-57.399-22.353-111.362-62.938-151.949C377.361,73.465,323.398,51.113,266,51.113z" style="fill: inherit;"/><path d="M266,500.145c-62.542,0-121.341-24.355-165.565-68.579C56.21,387.341,31.855,328.542,31.855,266 c0-62.542,24.355-121.341,68.58-165.565C144.659,56.211,203.458,31.855,266,31.855c62.543,0,121.342,24.355,165.565,68.58 c44.224,44.224,68.578,103.022,68.578,165.565c0,62.543-24.354,121.342-68.578,165.565S328.543,500.145,266,500.145z M266,36.712 c-61.245,0-118.825,23.85-162.132,67.157C60.562,147.175,36.711,204.755,36.711,266s23.85,118.824,67.157,162.131 c43.307,43.308,100.887,67.158,162.132,67.158s118.825-23.851,162.132-67.157c43.306-43.307,67.156-100.887,67.156-162.132 c0-61.246-23.851-118.825-67.156-162.131C384.825,60.562,327.245,36.712,266,36.712z" style="fill: inherit;"/><path d="M266,436.372c-93.943,0-170.371-76.429-170.371-170.372c0-93.943,76.428-170.371,170.371-170.371 c93.942,0,170.37,76.428,170.37,170.371C436.37,359.943,359.942,436.372,266,436.372z M266,101.629 c-90.635,0-164.371,73.736-164.371,164.371c0,90.635,73.736,164.372,164.371,164.372c90.634,0,164.37-73.737,164.37-164.372 C430.37,175.366,356.634,101.629,266,101.629z" style="fill: inherit;"/><path d="M266,416.039c-82.731,0-150.038-67.308-150.038-150.039c0-82.731,67.307-150.037,150.038-150.037 c82.73,0,150.037,67.306,150.037,150.037C416.037,348.731,348.73,416.039,266,416.039z M266,125.963 c-77.217,0-140.038,62.82-140.038,140.037c0,77.218,62.821,140.039,140.038,140.039c77.217,0,140.037-62.821,140.037-140.039 C406.037,188.783,343.217,125.963,266,125.963z" style="fill: inherit;"/><path d="M266,456.36c-104.965,0-190.36-85.396-190.36-190.36c0-104.964,85.395-190.359,190.36-190.359 c104.964,0,190.357,85.395,190.357,190.359C456.357,370.965,370.964,456.36,266,456.36z M266,80.177 c-102.464,0-185.824,83.36-185.824,185.823c0,102.464,83.36,185.825,185.824,185.825c102.463,0,185.822-83.361,185.822-185.825 C451.822,163.537,368.463,80.177,266,80.177z" style="fill: inherit;"/></g></svg>
